<svg id="Layer_1" data-name="Layer 1" xmlns="http://www.w3.org/2000/svg" viewBox="0 0 112.3 67.88"><defs><style>.cls-1{fill:#303030;fill-rule:evenodd;}</style></defs><title>4371 [Converted]</title><path class="cls-1" d="M156.72,244.63c-.44.42-1.18.18-1.71.17a24.93,24.93,0,0,0-6,.68,12.16,12.16,0,0,0-5.89,2.65c-.7.62-1,1.63-2,2-.45-.83.61-1.87,1.28-2.47,1.77-1.6,3.37-2.27,6.32-2.9a23.21,23.21,0,0,1,6.31-.77C155.65,244,156.67,243.78,156.72,244.63Z" transform="translate(-114 -243.94)"/><path class="cls-1" d="M181.73,244.37c-.43,1.25-2.44,2.45-3.93,2.91a13.89,13.89,0,0,1-4.52.34c-1.31-.09-3-.34-3.16-1.45.94-.21,1.79.5,2.9.59,3.6.32,6.58-.81,8.11-2.56.15,0,.22-.14.26,0C181.62,244.14,181.56,244.37,181.73,244.37Z" transform="translate(-114 -243.94)"/><path class="cls-1" d="M158.68,245.57c.18-1.77,1.43.68,0,0Z" transform="translate(-114 -243.94)"/><path class="cls-1" d="M174.56,245.06c.37-.09.39.17.6.25.27.34,2.6-.47,2.47.43S173.3,246.48,174.56,245.06Z" transform="translate(-114 -243.94)"/><path class="cls-1" d="M177,255.9a124.05,124.05,0,0,1,13.92-1.71A52.35,52.35,0,0,0,201,252.66c.92-.27,2-.87,3-.35a6.91,6.91,0,0,1-1.11,3.25c-1.54,2.78-2.76,6.19-4.86,8.62a27.63,27.63,0,0,1-4.27,3.5,16.94,16.94,0,0,1,4.52.43,45.64,45.64,0,0,1,13,5.63A23,23,0,0,0,224,277.67c.91,0,2.16-.41,2.31.51s-1,1-1.45,1.37c-1.88,1.37-3.22,3.21-5,4.52a32.32,32.32,0,0,1-13.15,5.81,34.48,34.48,0,0,1-14.94-.34c1.88,2.58,6.59,4.27,11,4.61,1.14.08,3.07-.32,3.33.51s-.55,1.19-1.11,1.79a12.75,12.75,0,0,1-4.86,3.76,46.45,46.45,0,0,1-4.53,1.2c-2.84.67-5.41,1.42-9.05,1a22.75,22.75,0,0,1-4.69-1.45c.14,1.19.91,2.43.34,3.58-2.37.83-6.94.89-10.25.69-3.6-.23-7-.83-9.22-2.31-.68-.45-1.28-1.18-2-1.71s-1.47-1-2-1.53c-.87-.8-1.54-2-3-2.05-3.25,1.47-6.28,3-10.93,2.64a40.35,40.35,0,0,1-8.53-1.11,28.67,28.67,0,0,1-6.83-2.73,26.06,26.06,0,0,1-2.31-2,17.47,17.47,0,0,1-2.3-2c-.4-.49-.8-1.34-1.29-2a25.07,25.07,0,0,1-3.41-8.37,45.33,45.33,0,0,1-1.45-7.09c-.56-7.33,1.67-13,5-16.73,1.56-1.77,4.21-2.87,6.75-3.76a44,44,0,0,1,8.28-2,15.65,15.65,0,0,0,2.81-.35c.8-.29,1.4-1.34,2-1.79a19,19,0,0,1,10.07-3.67c3.7-.26,7.18.51,10.59,1s6.6,1.4,9.9,1.63a17.66,17.66,0,0,0,6.06-.52c.66-.19,1.93-.62,2.14.26s-1.13,1.6-1.54,2.13C179.43,252.73,178.44,254.76,177,255.9Zm-3-5c-6.41-.49-14-3.18-20.74-2.65a15.41,15.41,0,0,0-9.57,4.1c1,.19,2,.13,3.08.26a26.14,26.14,0,0,1,5.38,1.7,41,41,0,0,1,5.12,2c1.56.85,2.61,2.4,3.84,3.75a22.77,22.77,0,0,1,3.41,4.44,13.42,13.42,0,0,1,5.9-.94c1.45.12,3.44.38,5.37.6s4.46.4,4.53,1.54c0,.54-1.1,1.92-1.37,2.22a14.94,14.94,0,0,1-3.16,2.22c1.42,1,2.8,2,4.27,3.07,2.92,2,7,3,10.93,3.84a57.6,57.6,0,0,0,6.66.77,8.7,8.7,0,0,0,1.45.17c.87,0,2-.42,1.88.77-.08.67-.76.57-1.37.85a19.6,19.6,0,0,0-1.79,1.29c-.81.51-1.7.93-2.56,1.45-2.44,1.48-4.94,3.38-7.94,4.18-.35.71-.77,1.66-1.11,2.56s-.55,2.11-1.62,2c-.14-.69.49-1.27.77-2A7.75,7.75,0,0,0,186,287a1.86,1.86,0,0,1-.94.25,50,50,0,0,1-2.48,4.61c-.27.42-.48,1.26-1.19,1.2-.3-1,.72-1.82,1.19-2.65a15.66,15.66,0,0,0,1.28-3c-.44.05-1.05-.09-1.36.09-.69,1.38-1.64,2.76-2.39,4-.26.43-.38,1.28-1.11,1.11-.31-1,.64-1.7,1.11-2.47s.87-1.79,1.36-2.57H179.6a30.15,30.15,0,0,1-3.08,4.79c-.3.42-.56,1.4-1.36,1.1.05-1.15,1.08-1.92,1.7-2.81a23.56,23.56,0,0,0,1.71-3.08,27.29,27.29,0,0,1-3.58-.17c.2.71.91,1.43.68,2.48-.11.46-.55.6-.85,1-.72,1-1.31,2.88-2.31,3.16-.45-1.39,1.14-2.14,1.45-3.33a6.93,6.93,0,0,1-1.71.17,10.86,10.86,0,0,1-1.45,2.56c-.5.76-1.11,1.79-2.05,1.88-.38-.88.75-1.36,1.2-2a17.93,17.93,0,0,0,1.54-2.82c-.54,0-.86-.28-1.37-.34a19.64,19.64,0,0,1-2.65,4c-.29.34-.68,1-1.28.77-.24-.53.31-1,.6-1.36a13.28,13.28,0,0,0,2.56-3.85c-.5-.1-.73-.46-1.19-.59a13.59,13.59,0,0,1-1.88,2.73c-.68.78-1.23,2.18-2.48,1.88-.09-.77.73-.95,1.11-1.37a16.3,16.3,0,0,0,2.48-3.67c-.45-.18-.74-.52-1.2-.68-.66,1.17-1.41,2.26-2.13,3.33-.42.61-.89,1.61-1.71,1.53,0-1.08.9-1.82,1.45-2.64s1.16-1.77,1.71-2.65c-.44-.15-.78-.8-1.2-.68a16.25,16.25,0,0,1-6.66,9.73c1,.26,1.38,1.13,2,1.71a22.16,22.16,0,0,0,2,1.53c.66.52,1.32,1.18,2,1.63,2.21,1.5,5.45,1.9,8.87,2.13a40.92,40.92,0,0,0,8.29-.34c-.47-3.2-2.06-5.29-5.38-5.64-.46-.42-1.5-.42-1.37-1.36s1.32-.53,2.14-.26c2.68.88,4.05,2,6.23,3.25a12.48,12.48,0,0,0,4.61,1.53,20.91,20.91,0,0,0,8-.94c3.82-.95,6.68-1.6,8.46-4.18-4.67-.35-9.23-1.58-12-4.18-.73-.68-2.54-1.95-2.22-3.25.22-.89,1.12-.52,1.88-.42,1.19.15,2.54.46,3.41.59a32.5,32.5,0,0,0,10.08.09,30.49,30.49,0,0,0,14.77-6.15c1.11-.83,1.93-1.82,2.9-2.65.15-.12.64-.23.51-.59a45.47,45.47,0,0,1-5.29-.77c-3.57-1-6.23-3.18-9.39-4.78a47.17,47.17,0,0,0-10.16-4c-4.07-1-8.15.35-12,.85-.32-.33-.64-.39-.59-.94.07-.89,1.31-.74,2.13-.94a21.53,21.53,0,0,0,5.81-2.48,16.49,16.49,0,0,0,5-4.95c1.45-2.38,1.84-4.59,3.5-7a43.62,43.62,0,0,1-8.62,1.45c-6.18.35-12,1.23-17.67,2.05-.95.14-4.39,1.3-5.12.52-1.31-1.4,2.79-2,3.92-2.57,2.24-1.07,3.53-3,4.7-4.95A21.17,21.17,0,0,1,174,251Zm-43,5c-1.87.67-4.39,1.66-5.63,2.81-3.91,3.63-5.68,10.69-5,16.4.18,1.64.66,3.4,1,5.12a26.23,26.23,0,0,0,3.58,9.3c.46.67.81,1.4,1.2,1.88a21.7,21.7,0,0,0,4.35,3.67,24.1,24.1,0,0,0,7.68,2.73,41.81,41.81,0,0,0,8.8.77,19.21,19.21,0,0,0,7.77-2.3,13.59,13.59,0,0,0,7.68-8.37,39.47,39.47,0,0,0,2.22-7.34,36.29,36.29,0,0,0,.43-7.6,30.66,30.66,0,0,0-.94-4,22.19,22.19,0,0,0-1.11-3.93c-.85-1.83-2.27-3-3.5-4.44a15,15,0,0,0-2.91-2.9,27.84,27.84,0,0,0-3.5-1.37,48.93,48.93,0,0,0-5-1.79c-1.77-.47-3.08-.25-4.87-.51a7.9,7.9,0,0,0-2.3-.34c-.06,0-.1.08-.09.08A38.19,38.19,0,0,0,130.93,256ZM165,266.06c.46,2.56,1.46,4.57,1.53,7.51,1.07-.25,1.9-2.33,3.08-1.62-.41,1.39-2.69,1.68-3.08,3.16-.2.78.12,2,0,2.9a22.14,22.14,0,0,1,4.7-4.61c.21-.15,1.33-.88,1.37-.08,0,.54-.7.53-1,.76-.93,1.29-2.44,2-3.5,3.16-.72.79-1,1.78-1.79,2.56-.07,2.19-.9,3.6-1.28,5.47a35.54,35.54,0,0,0,4.95,3.16,5.49,5.49,0,0,0,4.1.6c-.14-.84-2.09-2-1.88-3.16s1.74-.29,2.22-.17c2.74.64,6.41.4,9.47.17a8.46,8.46,0,0,0,1.2-.17,29,29,0,0,0,6.32-2.74c2.14-1.14,3.74-2.54,5.63-3.5a56.13,56.13,0,0,1-9-1.36,38.46,38.46,0,0,1-5.89-1.88c-2.57-1.06-4.77-2.93-7-4.53-.72-.51-2.13-1.11-2.14-1.79,0-1,1.83-1.14,2.48-1.45a4.92,4.92,0,0,0,2.56-2.31C174,265.72,168.61,264.39,165,266.06Z" transform="translate(-114 -243.94)"/><path class="cls-1" d="M161,250.78c-.83.52-1.82,0-2.64-.26a10.46,10.46,0,0,0-4.1-.6,10.61,10.61,0,0,0-4.7,1.71c-.37.24-.74.9-1.28.51-.18-.81,1-1.28,1.8-1.7a10.14,10.14,0,0,1,6-1.28,13.43,13.43,0,0,1,2.73.59C159.55,250,160.76,250,161,250.78Z" transform="translate(-114 -243.94)"/><path class="cls-1" d="M207,249.24a24.67,24.67,0,0,1-1.19,6.75,16.9,16.9,0,0,1-1.45,2.56c-.47.8-.93,2-2,1.87-.17-.88.58-1.11.94-1.62,1.77-2.49,2.48-5.64,3-9.39a.23.23,0,0,1,.17-.25A.67.67,0,0,1,207,249.24Z" transform="translate(-114 -243.94)"/><path class="cls-1" d="M136.91,251.2c-.15.75-1.48.39-2,.43a15.18,15.18,0,0,0-6.66,2.22c-.66.41-1,1.33-1.88,1.11.05-1.44,1.86-2,3.25-2.65a11.66,11.66,0,0,1,6.14-1.45C136.14,250.88,136.81,250.69,136.91,251.2Z" transform="translate(-114 -243.94)"/><path class="cls-1" d="M163.72,251c.2.66-.57.71-.94.52,0-.14-.08-.15-.09-.26C162.63,250.78,163.49,250.75,163.72,251Z" transform="translate(-114 -243.94)"/><path class="cls-1" d="M174.05,252.14c-.22,1.17-2.18.89-3.33.77-1.47-.15-3.34-.72-4.53-.94-.07-.41.06-.71.43-.68,1,.07,2.46.59,4,.77C171.9,252.2,173.09,251.84,174.05,252.14Z" transform="translate(-114 -243.94)"/><path class="cls-1" d="M209,254c.37.92-.36,1.87-.77,2.82-.29.65-.45,1.63-1.2,1.54-.21-1.48,1.19-2.79,1.45-4.36Z" transform="translate(-114 -243.94)"/><path class="cls-1" d="M138.19,256.16a40.81,40.81,0,0,1,4.35-.09,17.24,17.24,0,0,1,10.93,3.33,15.79,15.79,0,0,1,2.73,1.88c1.54,1.58,2.13,3.54,3.16,6a19.9,19.9,0,0,1,1.88,6.58,36.09,36.09,0,0,1-.51,8.45c-.59,3.59-1.38,6.76-3.5,8.88a11.24,11.24,0,0,1-3.67,2.3c-1.15.39-2.55.47-3.93.77a32.46,32.46,0,0,1-3.76.86,32,32,0,0,1-5-.17c-1.47-.11-3.06-.55-4.53-.77-3.7-.57-5.73-1.69-7.6-4.27A40.28,40.28,0,0,1,126,286a27,27,0,0,1-3-10c-.51-6.35,1.26-10,3.84-13.32a22.59,22.59,0,0,1,1.71-2.22,18.38,18.38,0,0,1,6.23-3.33A14.88,14.88,0,0,1,138.19,256.16ZM132,260.08c1.86,1.34-.8,3-1.11.86-2.25,1.39-3.56,3.73-4.87,6.06,1.33.24.45,2.32-.77,1.45a24.85,24.85,0,0,0-.6,7.26c2.06-.53,1.8,1.86.26,1.7a20.33,20.33,0,0,0,2.39,7.35c1.13-.95,1.83.95.86,1.53,1.65,2.27,3,4.87,6.06,5.72a3.72,3.72,0,0,1,.08-1.19c1-.78,1.77.31,1.45,1.62,2.38.24,4.56,1.14,7.18.85-.91-1.79,2.39-1.59,1.28.26,2.86,0,4.86-.94,7.42-1.28-1.47-1.76,1.73-2.41,1.28-.34,3-1,4.75-3.28,5.55-6.49-1.32-.1-.68-2.09.43-1.62.36-2.52,1-4.74.85-7.77-.58.82-2.78.91-2.73-.26,0-.93,2.15-1.17,2.73-.51a19.37,19.37,0,0,0-1.36-6.57c-.32.05-.39.35-.86.25-.86-.21-1.85-2.25-.08-2.22-.94-2.42-1.93-4.78-4.44-5.63-.28.65-.41,1.51-1.2,1.45-1.12-.09-.76-2,.17-2.31-2.31-1.72-5.4-2.67-9.56-2.56.92,2.35-2.18,2.71-1.53.09C137,257.3,134.6,259.05,132,260.08Z" transform="translate(-114 -243.94)"/><path class="cls-1" d="M196.16,256.41c0,.2.15.25.08.51a.5.5,0,0,1-.76,0C195.35,256.38,195.78,256.21,196.16,256.41Z" transform="translate(-114 -243.94)"/><path class="cls-1" d="M193.85,256.75c-.13.83-1.31.86-2,1a25.51,25.51,0,0,1-2.48.6c-4,.44-8.57-.34-11.87.94-.81.31-1.46,1.31-2.39.42.23-.51.94-.59,1.45-.85a15.58,15.58,0,0,1,5.55-1.28c2.21-.16,4.38.13,6.41,0a19.55,19.55,0,0,0,4.61-1C193.3,256.51,193.7,256.34,193.85,256.75Z" transform="translate(-114 -243.94)"/><path class="cls-1" d="M118.47,261.79h.17c.5.61,0,1.42-.09,2-.92,4.63-1.55,11.7-.34,16.82.4,1.69,1,3.23,1.54,4.87.14.42.57,1,.08,1.45-.9-.24-.91-1.43-1.19-2.22a32.11,32.11,0,0,1-2-8.2,46.51,46.51,0,0,1,1.54-14.6A.59.59,0,0,1,118.47,261.79Z" transform="translate(-114 -243.94)"/><path class="cls-1" d="M151.42,263.58c0,1.39-.78,2.54-1.36,3.67-1.26,2.46-2.87,4.78-4.27,7.26,1.44,1.7.56,5.78-1.45,6.41a3.81,3.81,0,0,1-4.78-2.74c-1.61-.23-3.81-.61-5.64-.77-1.43-.12-5.15.56-5.38-.59-.29-1.51,3.24-1.11,4.87-1,1.32.07,2.67.44,3.5.51,1,.09,1.88-.14,2.56.26,1.09-1,1.54-2.2,3.07-2.48.4-.07.9.14,1.37,0s1.12-1.36,1.54-2c1.19-2,2-3.33,3.07-5.38.58-1.14,1.21-2.42,1.71-3.25C150.47,263.1,151.35,263.21,151.42,263.58Zm-8.53,12.13A2.53,2.53,0,0,0,141,277.5c0,.88,1.62,2.45,2.9,1.88a3.52,3.52,0,0,0,.85-3.42C144.05,276,143.59,275.6,142.89,275.71Z" transform="translate(-114 -243.94)"/><path class="cls-1" d="M187.62,272.38c.26-.92,1.47-1,2.31-1.2a18.56,18.56,0,0,1,6.74-.6c2,.21,4.72,1.67,6.58,2.48a17.7,17.7,0,0,1,4.78,2.82c1.62-.29,1.39,1.08,0,.85s-2.16-1.52-3-2.05a23.08,23.08,0,0,0-2.65-1.11c-2.59-1.12-5.14-2.39-8.54-2.22a17.73,17.73,0,0,0-3.41.52C189.48,272.11,188.56,272.8,187.62,272.38Z" transform="translate(-114 -243.94)"/><path class="cls-1" d="M114.63,272.8c.63,2.55.64,5.78,1.28,8.29.15.6.78,1.33.17,1.87-.72-.1-.78-1.08-.94-1.7a51.81,51.81,0,0,1-.94-6.75,4.69,4.69,0,0,1-.17-1.45.46.46,0,0,1,.25-.26Z" transform="translate(-114 -243.94)"/><path class="cls-1" d="M226.21,274.85c-.19,1.62-4.25,1.93-6,1.2a7.2,7.2,0,0,1-1.53-1c-.27-.23-.62-.64-.51-1a.41.41,0,0,1,.25-.09c.65-.13,1.24.92,2,1.29a6.39,6.39,0,0,0,3.33.34C224.59,275.38,225.15,274.66,226.21,274.85Z" transform="translate(-114 -243.94)"/><path class="cls-1" d="M174,274.85c0,.79-.86,1-1.36,1.37a36,36,0,0,0-4.1,3.93c-.57.59-.68,1.69-1.62,1.88-.43-.68.49-1.93,1-2.48a43.45,43.45,0,0,1,5.21-4.7c0-.09.17-.05.17-.17C173.54,274.71,173.94,274.59,174,274.85Z" transform="translate(-114 -243.94)"/><path class="cls-1" d="M175.93,276.56c-.28.71-1,.84-1.54,1.28s-1.24,1.3-1.88,2a26.18,26.18,0,0,0-1.79,2c-.3.38-.32,1.16-1,1.11-.53-1.19,1.17-2.38,2.22-3.5a15.79,15.79,0,0,1,3.33-3.16C175.45,276.11,175.79,276.29,175.93,276.56Z" transform="translate(-114 -243.94)"/><path class="cls-1" d="M177.29,277.67c.34.93-.79,1.56-1.36,2.13s-1.47,1.2-2,1.8c-.29.35-.21,1-.85.94-.51-.35-.11-1.1.08-1.37.8-1.1,2.82-2.26,3.59-3.5.12,0,.24,0,.26-.08A.41.41,0,0,0,177.29,277.67Z" transform="translate(-114 -243.94)"/><path class="cls-1" d="M211.19,278c.37-.2.76-.05.76.34C212,279.28,210.34,278.48,211.19,278Z" transform="translate(-114 -243.94)"/><path class="cls-1" d="M218.87,279.89c-.05,1-1.68.56-2.65.43s-2.1-.82-2.9-.94c0-.27,0-.52.17-.6s.09-.08.17-.08c.84-.06,1.62.63,2.48.76S218.1,279.37,218.87,279.89Z" transform="translate(-114 -243.94)"/><path class="cls-1" d="M178.83,279.38c-.21,1.13-1.16,1.51-1.79,2.22-.27,0-.23-.23-.43-.26.16-1.09,1.13-1.37,1.62-2.13A.62.62,0,0,1,178.83,279.38Z" transform="translate(-114 -243.94)"/><path class="cls-1" d="M179.77,280.74c-.06.72-.33,1.22-1,1.29C178.23,281.41,179.15,280.25,179.77,280.74Z" transform="translate(-114 -243.94)"/><path class="cls-1" d="M198.72,295.86c-.28.67-1.9.48-2.48.42-2.15-.23-4.17-1.55-5.8-2.47-.73-.42-1.71-.76-1.88-1.54.07,0,.08,0,.09-.09a.79.79,0,0,1,.25-.17c2.42.89,4.31,3.07,7.26,3.42C196.85,295.51,198.35,295.1,198.72,295.86Z" transform="translate(-114 -243.94)"/><path class="cls-1" d="M208.79,297.48a6,6,0,0,1-2.39,2.73c-1,.73-2,1.39-3.07,2.05a17.72,17.72,0,0,1-9.31,3.16c-.66,0-1.52.14-2-.34.1-.79,1.07-.51,1.53-.52,4,0,6.11-1.07,9-2.81,2.39-1.46,4.43-2.76,5.8-4.53C208.61,297.15,208.59,297.43,208.79,297.48Z" transform="translate(-114 -243.94)"/><path class="cls-1" d="M178.57,302.34c-1.14.29-1.91-.74-2.64-1.36a8,8,0,0,0-4.44-2.22c0-.33,0-.53.25-.6,2.84-.14,3.89,1.84,5.55,3C177.83,301.52,178.65,301.55,178.57,302.34Z" transform="translate(-114 -243.94)"/><path class="cls-1" d="M152,302.94c.29.71-.68.81-1.28.94a13.72,13.72,0,0,1-3.24.6c-1.62,0-3.36,0-5-.17a36.55,36.55,0,0,1-7.17-1.88c-.55-.18-1.24-.2-1.54-.68,0-.2,0-.32.17-.34a.39.39,0,0,1,.43-.18,43.18,43.18,0,0,0,7.94,2.22c1.1.13,2.39-.09,3.58,0a12.87,12.87,0,0,0,2.48.17C149.56,303.48,150.73,302.7,152,302.94Z" transform="translate(-114 -243.94)"/><path class="cls-1" d="M154.41,302.26c-.16-.17-.31-.21-.34-.34C153.72,300.51,156,301.83,154.41,302.26Z" transform="translate(-114 -243.94)"/><path class="cls-1" d="M206.15,302.52c-.25,1.8-2.66,3-4.53,3.75-.53.21-2.57,1.26-2.56.26,0-.4.39-.48.86-.43,2.18-.83,4.33-1.7,5.54-3.5,0-.11.16-.13.18-.26C205.93,302.28,206,302.44,206.15,302.52Z" transform="translate(-114 -243.94)"/><path class="cls-1" d="M178.49,307.47c.11.82-1.09.8-1.71.94a19.13,19.13,0,0,1-8.11-.09c-1.6-.43-3.48-1.25-5-1.79-.47-.16-1.36-.35-1.19-1,.05.05.25-.22.42-.17,2.84.91,6.72,3,11.61,2.65C175.85,307.88,177,307.2,178.49,307.47Z" transform="translate(-114 -243.94)"/><path class="cls-1" d="M177.72,309.77c-.7,1.11-3.26,1.59-4.78,1-.24-.9,1.1-.53,1.79-.6C175.81,310.09,177.26,309.14,177.72,309.77Z" transform="translate(-114 -243.94)"/><path class="cls-1" d="M179.85,310c.1,1.14-.82,1.28-1.36,1.79a2.05,2.05,0,0,1-.43-.26c.1-.92,1-1,1.37-1.7C179.64,309.84,179.69,310,179.85,310Z" transform="translate(-114 -243.94)"/></svg>
